<svg id="Capa_1" enable-background="new 0 0 496.85 496.85" height="512" viewBox="0 0 496.85 496.85" width="512" xmlns="http://www.w3.org/2000/svg"><g><path d="m425.735 74.438c-15.634-34.537-12.217-61.247-10.144-70.79.424-1.951-1.119-3.761-3.112-3.642-16.021.959-74.151 7.814-86.703 56.804 0 0 1.319 12.961 1.319 20.338 0 28.266 22.074 72.523 50.34 72.523 33.187 0 52.127-20.715 52.651-48.083.068-3.533.618-10.728.618-10.728-.88-5.494-2.523-11.02-4.969-16.422z" fill="#8b818e"/><path d="m71.114 74.438c15.634-34.537 12.217-61.247 10.144-70.79-.424-1.951 1.119-3.761 3.113-3.642 16.019.959 74.134 7.812 86.697 56.783 0 0-.992 13.91-.992 21.295 0 28.266-20.037 69.358-48.303 69.358-28.084 0-47.561-11.676-52.844-33.523-1.766-7.302-2.783-23.059-2.783-23.059.88-5.494 2.523-11.02 4.968-16.422z" fill="#8b818e"/><g><g><path d="m144.853 123.105c-.013 0-.025 0-.038 0-4.142-.021-7.484-3.395-7.463-7.537l.141-28.62c.18-11.354-5.741-21.913-15.451-27.639-3.568-2.104-4.754-6.703-2.65-10.271 2.105-3.567 6.702-4.753 10.271-2.65 14.346 8.461 23.094 24.062 22.83 40.715l-.14 28.537c-.021 4.131-3.375 7.465-7.5 7.465z" fill="#756e78"/></g><g><path d="m351.852 124.126s0 0-.001 0c-4.142 0-7.499-3.359-7.499-7.501l.005-29.583c-.241-16.629 8.503-32.202 22.831-40.652 3.569-2.103 8.166-.917 10.271 2.65 2.104 3.568.917 8.166-2.65 10.271-9.71 5.726-15.63 16.285-15.452 27.556 0 .04.001.08.001.121l-.005 29.641c-.001 4.14-3.359 7.497-7.501 7.497z" fill="#756e78"/></g></g><path d="m389.747 421.46-72.806 42.389h-137.394l-65.535-42.179c-39.712-23.121-56.538-72.59-37.431-114.382l49.321-105.939 5.235-14.17h237.267l5.618 14.17 9.881 12.251 42.344 93.897c18.817 41.73 3.06 90.931-36.5 113.963z" fill="#8b818e"/><path d="m179.545 463.85-72.44-42.18c-39.71-23.12-55.42-72.59-36.31-114.38l48.43-105.94h13.8l-45.23 98.94c-19.11 41.79-3.4 91.26 36.31 114.38l72.44 42.18z" fill="#756e78"/><g fill="#faf8f8"><path d="m248.388 487.377h-30.386c-25.606 0-49.141-8.804-65.471-28.527-8.163-9.859-13.961-21.084-16.844-33.564-.818-3.541-2.875-10.506-2.875-10.506-1.158-15.043 1.56-30.746 4.054-41.301.897-3.798 6.153-4.19 7.599-.565 4.665 11.688 13.641 29.328 28.55 41.106 3.254 8.954 18.758 16.356 32.91 16.356l42.463-4.026z"/><path d="m248.388 487.377h30.461c25.606 0 48.43-8.804 64.76-28.527 8.163-9.859 14.897-20.919 17.78-33.399.817-3.538 2.649-10.661 2.649-10.661 1.16-15.046-1.559-30.753-4.053-41.311-.897-3.798-6.153-4.19-7.599-.565-4.665 11.688-13.641 29.328-28.551 41.106 0 0-3.388 5.105-5.878 6.56-7.851 4.589-18.25 8.31-28.995 8.31h-40.575v58.487z"/></g><path d="m348.245 442.64c-6.902 8.101-15.241 14.723-24.498 19.717-2.722 1.469-5.622-1.597-3.985-4.222 1.877-3.009 3.454-6.268 4.684-9.745 4.1-11.58 3.71-23.69-.61-34.37-9.22 7.29-20.72 12.33-34.87 12.33h-81.08c-14.15 0-25.65-5.04-34.87-12.33-4.32 10.68-4.71 22.79-.61 34.37 1.23 3.477 2.807 6.736 4.684 9.745 1.637 2.625-1.263 5.691-3.985 4.222-9.257-4.994-17.597-11.616-24.498-19.717-7.02-8.24-12.47-17.69-15.79-27.86.28 3.71.8 7.38 1.62 10.92 2.88 12.48 8.86 24.08 17.03 33.94 16.33 19.73 40.93 30.71 66.54 30.71h30.38 30.46c25.61 0 50.21-10.98 66.54-30.71 8.17-9.86 14.15-21.46 17.03-33.94.82-3.54 1.34-7.2 1.62-10.91-3.332 10.16-8.772 19.61-15.792 27.85z" fill="#f0e9e6"/><path d="m286.526 458.85c0 8.08-3.231 21.73-3.231 21.73-7.681 9.836-20.435 16.27-34.87 16.27s-27.189-6.434-34.87-16.27c0 0-3.515-13.649-3.515-21.73z" fill="#8b818e"/><path d="m290.925 458.85c0 8.08-2.82 15.58-7.63 21.73-1.55.16-3.12.23-4.71.23h-60.32c-1.59 0-3.16-.07-4.71-.23-4.81-6.15-7.63-13.65-7.63-21.73z" fill="#756e78"/><path d="m228.577 381.832-30.84 24.946c-.682.551-1.333 1.118-1.954 1.7 0 0-4.544 7.455-6.221 11.332-8.637 19.967 7.083 42.66 32.119 42.66l56.147.44c11.411 0 26.89-11.097 26.89-11.097 9.613-13.03 9.449-32.857-5.605-45.034l-30.84-24.946c-11.576-9.365-28.12-9.365-39.696-.001z" fill="#cf9875"/><path d="m304.718 451.812c-5.66 7.68-14.723 12.998-26.133 12.998h-60.32c-29.89 0-43.66-36.51-22.48-56.33-9.29 18.53 3.38 43.33 27 43.33z" fill="#c7865b"/><g><g><path d="m268.509 441.77c-4.142 0-7.5-3.358-7.5-7.5v-15.45c0-4.142 3.358-7.5 7.5-7.5s7.5 3.358 7.5 7.5v15.45c0 4.143-3.357 7.5-7.5 7.5z" fill="#c7865b"/></g><g><path d="m227.31 441.77c-4.142 0-7.5-3.358-7.5-7.5v-15.45c0-4.142 3.358-7.5 7.5-7.5s7.5 3.358 7.5 7.5v15.45c0 4.143-3.358 7.5-7.5 7.5z" fill="#c7865b"/></g></g><g><g><g><path d="m293.642 357.536c-1.657 0-3.324-.546-4.712-1.669-23.47-18.984-57.539-18.984-81.009 0-3.22 2.604-7.943 2.107-10.548-1.114s-2.106-7.943 1.114-10.548c14.086-11.394 31.821-17.669 49.938-17.669s35.852 6.275 49.938 17.669c3.22 2.605 3.719 7.327 1.114 10.548-1.482 1.831-3.649 2.783-5.835 2.783z" fill="#756e78"/></g></g></g><g><g><g><path d="m282.335 313.537c-1.202 0-2.421-.29-3.553-.9-17.59-9.485-43.123-9.485-60.713 0-3.645 1.964-8.195.604-10.161-3.042s-.604-8.195 3.042-10.161c22.064-11.898 52.887-11.898 74.951 0 3.646 1.966 5.008 6.516 3.042 10.161-1.356 2.513-3.94 3.942-6.608 3.942z" fill="#756e78"/></g></g></g><path d="m430.705 90.86c-3.091 18.759-15.483 34.72-35.254 40.585-2.402.713-4.974-.449-5.994-2.738-8.556-19.178-20.459-36.394-35.152-50.468-8.75-8.38-18.3-15.54-28.53-21.43-.757 2.949-1.344 6.049-1.749 9.305 0-.002-.001-.003-.001-.005-1.25 8.287-.759 19.798 2.55 30.23 6.05 20.37 20.06 42.8 36.39 52.09 9.31 5.827 23.577 5.284 34.313 1.344.081.036.128.058.128.058 24.922-8.442 37.402-33.353 33.299-58.971z" fill="#756e78"/><path d="m172.824 66.139c-.001-.01.002-.02.001-.03-.001.006-.002.012-.003.017-.408-3.27-.995-6.382-1.754-9.338-10.25 5.88-19.813 13.051-28.573 21.441-14.685 14.066-26.591 31.285-35.149 50.465-1.022 2.29-3.595 3.452-5.998 2.736-19.741-5.878-32.114-21.829-35.202-40.571-4.106 25.636 8.394 50.564 33.35 58.989 9.684 3.113 23.401 5.163 34.31-1.369 16.38-9.27 30.44-31.78 36.49-52.21 2.975-10.001 3.903-19.288 2.528-30.13z" fill="#756e78"/><path d="m359.495 83.46c-.11 1.12-.16 2.26-.14 3.41v29.76c0 4.14-3.36 7.5-7.5 7.5-4.15 0-7.5-3.36-7.5-7.51v-29.58c-.08-5.35.77-10.58 2.45-15.51 2.56 2.14 5.06 4.38 7.5 6.71 1.77 1.7 3.5 3.44 5.19 5.22z" fill="#665e66"/><g><path d="m152.495 87.1-.14 28.54c-.02 4.13-3.38 7.47-7.5 7.47h-.04c-4.14-.03-7.48-3.4-7.46-7.54l.14-28.62c.02-1.19-.03-2.37-.14-3.53 1.66-1.77 3.38-3.5 5.14-5.19 2.45-2.35 4.96-4.6 7.54-6.75 1.69 4.96 2.54 10.23 2.46 15.62z" fill="#665e66"/></g><path d="m210.594 248.35s-14.979-56.287-46.065-56.287c-26.857 0-28.104 31.528-28.104 31.528l-10.743-10.15c-11.515-8.799-15.642-21.111-13.541-35.45 7.732-52.771 38.134-99.298 89.161-117.069 2.812-.979 8.472-3.012 8.472-3.012 11.981-3.29 24.881-5.062 38.623-5.062 77.924 0 128.768 56.977 138.665 124.59.381 2.604.499 5.209.367 7.78 0 0-2.465 6.277-3.36 9.286-2.372 7.97-5.461 15.165-12.289 20.393l-11.353 8.692c-.006-.354-1.288-31.528-28.162-31.528-31.086 0-46.065 56.287-46.065 56.287" fill="#8b818e"/><g><g><path d="m285.616 194.797c-1.635 0-3.282-.532-4.661-1.629-3.243-2.577-3.783-7.295-1.206-10.538 14.396-18.116 31.955-27.692 50.775-27.692 14.14 0 25.234 3.901 32.976 11.596 2.938 2.92 2.952 7.669.032 10.606-2.92 2.938-7.669 2.953-10.606.032-4.83-4.8-12.367-7.234-22.401-7.234-14.286 0-27.418 7.41-39.032 22.024-1.481 1.864-3.669 2.835-5.877 2.835z" fill="#756e78"/></g><g><path d="m211.236 194.797c-2.208 0-4.396-.971-5.876-2.834-11.614-14.614-24.747-22.024-39.033-22.024-10.035 0-17.572 2.434-22.402 7.235-2.937 2.92-7.686 2.906-10.606-.032s-2.906-7.687.032-10.606c7.741-7.695 18.836-11.596 32.977-11.596 18.821 0 36.378 9.576 50.776 27.691 2.577 3.243 2.038 7.961-1.205 10.538-1.382 1.096-3.028 1.628-4.663 1.628z" fill="#756e78"/></g></g><path d="m380.689 206.472 3.216 7.128c-2.22 2.66-4.75 5.09-7.57 7.25l-11.35 8.7c-2.25 1.72-5.27 2.03-7.83.79-2.51-1.21-4.13-3.72-4.23-6.5-.01-.34-.39-7.01-3.48-13.34-4.279-8.957-14.19-13.795-25.07-9.15-16.48 7.5-27.68 36.69-30.93 48.93-.89 3.36-3.93 5.57-7.24 5.57-.64 0-1.29-.08-1.94-.25-4-1.07-6.38-5.18-5.32-9.18.44-1.64 7.45-27.32 22.32-45.07 8-9.54 18.26-16.79 31-16.79 14.754-.047 27.216 8.889 32.378 23.364.434 1.157 1.853 1.567 2.831.811l1.751-1.355c6.77-5.68 14.63-16.89 18.2-22.16-.368 7.17-2.692 14.077-6.629 20.007-.246.371-.29.839-.107 1.245z" fill="#756e78"/><path d="m217.845 246.42c-.44-1.64-7.45-27.32-22.32-45.07-8-9.54-18.26-16.79-31-16.79-14.705-.052-27.161 8.847-32.338 23.258-.457 1.209-1.938 1.639-2.961.848l-1.661-1.286c-1.836-1.54-3.75-3.488-5.636-5.614-1.77-1.994-2.58-4.658-2.256-7.305.02-.165.041-.332.062-.501 7.66-61.15 39.81-114.85 90.04-136.04-55.95 15.36-91.88 63.82-100.04 119.5-.382 2.611-.499 5.222-.365 7.8.002.04.012.078.015.118.391 7.092 2.679 13.924 6.573 19.803.576.869.633 1.983.2 2.931l-2.783 6.098c2.1 2.44 4.46 4.68 7.08 6.68l11.35 8.7c2.25 1.72 5.27 2.03 7.83.79 2.51-1.21 4.13-3.72 4.23-6.5.01-.34.39-7.01 3.48-13.34 4.279-8.957 14.19-13.795 25.07-9.15 16.48 7.5 27.68 36.69 30.93 48.93.89 3.36 3.93 5.57 7.24 5.57.64 0 1.29-.08 1.94-.25 4-1.071 6.38-5.18 5.32-9.18z" fill="#756e78"/><g><g><path d="m166.925 241.85c-4.142 0-7.5-3.358-7.5-7.5v-12c0-4.142 3.358-7.5 7.5-7.5s7.5 3.358 7.5 7.5v12c0 4.142-3.358 7.5-7.5 7.5z" fill="#665e66"/></g><g><path d="m329.925 241.85c-4.142 0-7.5-3.358-7.5-7.5v-12c0-4.142 3.358-7.5 7.5-7.5s7.5 3.358 7.5 7.5v12c0 4.142-3.358 7.5-7.5 7.5z" fill="#665e66"/></g></g></g></svg>