<svg id="Capa_1" enable-background="new 0 0 493.815 493.815" height="512" viewBox="0 0 493.815 493.815" width="512" xmlns="http://www.w3.org/2000/svg"><g><path d="m164.439 133.645-21.79-9.83c-22.35-10.08-38.72-30.02-44.26-53.9-1.36-5.87-2.03-11.83-2.03-17.76 0-15.1 4.35-30.02 12.72-42.89l1.892-2.909 2.779-2.359c1.792-2.754 5.708-3.061 7.907-.619l10.591 10.176c16.3 22.75 22.67 51.57 16.85 79.61l-1 4.84c-2.959 14.281 3.731 28.771 16.341 35.641z" fill="#c7865b"/><path d="m307.743 103.273-5.446 9.632 17.84 24.911 9.24-4.17c12.61-6.87 20.933-21.263 17.973-35.543l-.511-5.106c-5.274-25.41-.185-51.326 12.553-72.894 1.318-2.232.646-4.414 2.175-6.547l-19.7 21.89c-15.716 17.463-27.555 38.005-34.79 60.259z" fill="#cf9875"/><path d="m329.377 133.645 21.79-9.83c22.35-10.08 38.72-30.02 44.26-53.9 1.36-5.87 2.03-11.83 2.03-17.76 0-15.1-4.35-30.02-12.72-42.89l-1.892-2.909-2.779-2.359c-1.792-2.754-5.708-3.061-7.907-.619l-10.591 10.176c-16.3 22.75-22.67 51.57-16.85 79.61l1 4.84c2.959 14.281-3.731 28.771-16.341 35.641z" fill="#c7865b"/><path d="m339.609 125.375c-2.87 3.32-6.35 6.15-10.23 8.27l-9.24 4.17-17.84-24.91 1.34-5.09c1-4.09 2.138-8.131 3.438-12.111 14.749 4.19 26.902 15.091 32.532 29.671z" fill="#c7865b"/><path d="m191.519 112.905-17.84 24.91-9.24-4.17c-1.03-.54-2.05-.95-2.78-1.44-8.31-5.58-4.69-4.63-6.36-5.63-7.14-7.57-10.99-18.05-8.83-28.47l.51-5.11c5.27-25.41.18-51.33-12.56-72.89-1.31-2.23-.64-4.42-2.17-6.55l19.7 21.89c18.365 20.45 31.538 45.168 38.23 72.37z" fill="#cf9875"/><path d="m334.943 395.257-4.487-12.797c-9.635-27.481-9.795-57.892 6.369-82.115l.779-1.168c10.165-15.232 18.506-98.081 18.506-116.394l5.083-3.654v-4.564c0-10.423-6.727-19.76-16.707-22.767-8.164-2.46-14.518-8.884-16.584-17.149h-1.29c-4.008-16.031-18.582-27.196-35.176-26.814-23.143.533-60.007.646-84.926.117l-5.464.792s-28.517 10.388-32.536 26.465h.596c-2.056 8.223-8.715 14.533-16.815 17.028-10.001 3.081-16.835 12.324-16.835 22.802l4.884 71.66c0 18.63 3.469 33.467 13.964 48.859 16.852 24.713 18.645 59.682 8.349 87.766l-4.217 11.503c-2.179 5.943 7.461 12.531 8.868 18.511h168.456c1.436-5.904 1.252-12.18-.817-18.081z" fill="#cf9875"/><path d="m150.179 184.565-3.202.899-10.34-1.404-2.457-4.931v-4.564c0-10.48 6.83-19.72 16.84-22.8 4.05-1.25 7.65-3.47 10.49-6.41 2.85-2.94 4.93-6.6 5.96-10.71 4.02-16.07 18.67-27.26 35.32-26.81 1.65.04 3.317.119 5.097.159-7.93 1.96-14.687 6.341-19.207 12.831-3 4.31-4.68 18.4-5.19 23.63-1.619 9.392-8.37 14.81-16.47 17.31-10.011 3.08-16.841 12.32-16.841 22.8z" fill="#c7865b"/><path d="m361.179 237.315v10.41c0 18.32-5.42 36.22-15.59 51.45l-.78 1.17c-11.001 16.487-15.284 35.829-15.512 55.19-.086 7.312 3.349 21.167 3.349 21.167l-6.094 3.358c-7.28-15.76-25.403-75.918-25.503-93.028l-2.667-49.717c9.589-34.509 34.973-45.168 62.812-43.186z" fill="#c7865b"/><path d="m244.511 150.438c-.315-1.446.956-2.741 2.397-2.401 4.757 1.121 13.299 4.03 18.258 11.439 6.201 9.264 4.365 19.372 3.891 21.767-2.409 12.175-12.691 14.244-17.342 26.79-2.647 7.14-2.819 14.261-1.965 20.577.198 1.465-1.246 2.622-2.64 2.129-5.139-1.818-14.358-6.059-18.651-14.931-2.997-6.193-2.815-11.87-2.755-13.109.664-13.845 14.04-17.948 18.393-32.212 1.339-4.389 2.384-10.988.414-20.049z" fill="#faf8f8"/><path d="m195.743 242.4-4.224 66.255c-.1 17.11-7.773 36.836-15.053 52.596l-12.255 26.184-.383-5.758c3.745-10.236 2.526-19.004 2.57-29.617.001-.128.001-.257.001-.385 0-18.4-5.47-36.63-16.11-52.24-10.5-15.39-16.11-33.58-16.11-52.21v-9.91-43.186c23.904-12.495 61.703 21.581 61.564 48.271z" fill="#c7865b"/><g><path d="m247.679 359.996c-4.142 0-7.5-3.358-7.5-7.5v-72c0-4.142 3.358-7.5 7.5-7.5 4.143 0 7.5 3.358 7.5 7.5v72c0 4.142-3.358 7.5-7.5 7.5z" fill="#c7865b"/></g><path d="m164.439 133.645-21.79-9.83c-1.64-.74-3.26-1.54-4.83-2.39-3.18-6.46-4.27-13.97-2.72-21.42l1-4.84c.182-.876.352-1.753.51-2.631 5.53-30.689-4.04-62.179-24.901-85.358l-.737-.82 2.658-4.081c1.79-2.76 5.71-3.06 7.91-.62l10.71 11.9c16.3 22.75 22.67 51.57 16.85 79.61l-1 4.84c-2.96 14.28 3.73 28.77 16.34 35.64z" fill="#c27e4e"/><path d="m329.377 133.645 21.79-9.83c1.64-.74 3.26-1.54 4.83-2.39 3.18-6.46 4.27-13.97 2.72-21.42l-1-4.84c-.182-.876-.352-1.753-.51-2.631-5.53-30.689 4.04-62.179 24.901-85.358l.737-.82-2.658-4.081c-1.79-2.76-5.71-3.06-7.91-.62l-10.71 11.9c-16.3 22.75-22.67 51.57-16.85 79.61l1 4.84c2.96 14.28-3.73 28.77-16.34 35.64z" fill="#c27e4e"/><g><g><path d="m161.788 415.631-5.608-15.409c1.058-3.128 3.925-9.915 4.504-11.533 2.157-6.026 3.059-8.123 4.097-11.857.814-2.931 1.285-5.336 1.54-6.776 1.724-3.73 3.447-7.461 5.171-11.191 10.769-22.824 21.05-84.637 17.247-119.089-2.732-24.743-27.171-45.647-53.367-45.647h-1.193v-15h1.193c34.056 0 64.685 26.468 68.276 59.001 4.154 37.625-6.921 102.406-18.564 127.082l-7.563 16.369z" fill="#c27e4e"/></g><g><path d="m339.76 413.336-22.513-33.899-6.894-14.139c-11.685-24.763-22.76-89.544-18.606-127.167 3.592-32.534 34.221-59.002 68.277-59.002h1.169v15h-1.169c-26.196 0-50.636 20.904-53.367 45.647-3.804 34.451 6.477 96.265 17.221 119.035l8.767 17.891 3.737 11.251c1.286 4.351 3.977 8.777 4.244 15.935.139 3.721-.307 6.936-.866 9.448z" fill="#c27e4e"/></g></g><path d="m340.439 410.055c-.71 5.32-2.77 10.45-6.09 14.87l-13.41 17.89c-4.14 5.52-6.38 12.23-6.38 19.12v.01c0 17.6-14.27 31.87-31.87 31.87h-59.149l-10.883-1.362c-17.61 0-28.758-14.397-28.758-31.997 0-6.89-2.24-13.6-6.37-19.12l-13.872-18.553c-3.34-4.45-8.028-7.238-8.728-12.588l2.256-12.43c16.712-37.922 163.546-41.223 180.101-1.67l.626 3.241z" fill="#8b818e"/><g fill="#756e78"><path d="m226.52 493.815h-14c-17.61 0-31.88-14.27-31.88-31.87v-.01c0-6.89-2.24-13.6-6.37-19.12l-13.24-17.65c-3.34-4.45-5.4-9.62-6.1-14.97l2.34-12.43c.04-.09.08-.19.13-.28l11.53 12.71c.7 5.35 2.76 10.52 6.1 14.97l13.24 17.65c4.13 5.52 6.37 12.23 6.37 19.12v.01c0 17.6 14.27 31.87 31.88 31.87z"/><path d="m156.487 406.73c.177-2.448-.307-6.508-.307-6.508 3.885-11.299 14.94-15.914 22.703-14.297 15.172 3.161 22.91 15.02 23.567 27.552.543 10.354 3.588 20.042 7.062 27.961 0 0-.448.558-.323.835 2.826 6.287-5.865 6.802-12 3.66-19.858-10.173-41.978-21.512-40.702-39.203z"/><path d="m338.977 406.89c-.177-2.448.201-6.667.201-6.667-3.885-11.299-14.94-15.914-22.703-14.297-15.172 3.161-22.91 15.02-23.567 27.552-.543 10.354-3.588 20.042-7.062 27.961 0 0 1.043.76.919 1.037-2.826 6.287 2.843 10.175 8.979 7.032 19.857-10.174 44.508-24.927 43.233-42.618z"/></g><path d="m199.969 451.785c-19.86-10.18-46.4-27.17-45.12-44.86.18-2.45.632-4.683 1.332-6.703 6.75 17.59 36.572 33.476 53.332 41.216.12.28.256.557.376.837 2.82 6.29-3.79 12.65-9.92 9.51z" fill="#665e66"/><path d="m295.389 451.785c-6.13 3.14-12.74-3.22-9.92-9.51.12-.28.256-.557.376-.837 16.76-7.74 46.582-23.626 53.332-41.216.7 2.02 1.151 4.253 1.332 6.703 1.28 17.69-25.26 34.68-45.12 44.86z" fill="#665e66"/><g><g><path d="m164.693 259.815c-4.142 0-7.5-3.358-7.5-7.5v-20c0-4.142 3.358-7.5 7.5-7.5s7.5 3.358 7.5 7.5v20c0 4.142-3.358 7.5-7.5 7.5z" fill="#756e78"/></g><g><path d="m330.693 259.815c-4.143 0-7.5-3.358-7.5-7.5v-20c0-4.142 3.357-7.5 7.5-7.5s7.5 3.358 7.5 7.5v20c0 4.142-3.357 7.5-7.5 7.5z" fill="#756e78"/></g></g></g></svg>