<svg id="Capa_1" enable-background="new 0 0 497 497" height="512" viewBox="0 0 497 497" width="512" xmlns="http://www.w3.org/2000/svg"><g><path d="m401.725 493.528c10.57-12.258 43.558-57.842 44.802-150.479.025-1.86 2.37-2.694 3.54-1.247 8.351 10.326 14.799 21.374 19.041 32.959.585 1.598 2.774 1.806 3.611.324 18.243-32.3 17.296-79.638.511-114.305-3.257-6.951-12.754-41.321-8.472-56.817.339-1.227 1.72-1.829 2.851-1.246l23.015 11.87c1.156.596 2.578-.049 2.865-1.318 5.384-23.805 4.651-51.271-3.329-75.729-11.909-37.204-41.664-68.886-54.989-81.198-1.245-1.15-.589-3.227 1.092-3.447 5.55-.728 15.419-1.812 22.862-1.478 1.768.079 2.767-2.01 1.587-3.329-26.414-29.514-64.803-48.088-107.523-48.088-18.464 0-36.117 3.469-52.345 9.792-33.72 13.139-70.971 13.139-104.691 0-14.455-5.632-30.042-9-46.326-9.669-1.996-.082-4.003.238-6.019.238-23.17 0-43.842 5.715-62.502 14.957-15.613 7.734-29.94 17.708-41.968 31.064-1.202 1.335-.15 3.458 1.641 3.324 2.629-.196 5.699 1.382 5.699 1.382 5.04.298 10.066.995 13.575 1.563.155.025.301.066.436.119 1.363.541 4.324 1.715 3.096 2.707-13.161 10.631-41.233 45.755-52.883 82.149-7.531 22.989-12.181 48.867-6.489 73.787.289 1.267 1.71 1.909 2.865 1.314l7.97-2.719 14.141-7.293c.222-.115.444-.319.676-.346.948-.111 3.001-.654 3.274.332 4.282 15.496-2.456 50.528-5.713 57.479-16.501 33.212-21.304 76.909-3.702 108.957.819 1.491 3.011 1.308 3.613-.284 1.307-3.452 4.25-5.345 4.25-5.345 4.001-7.924 9.054-15.548 15.051-22.809.201-.244.436-.421.687-.539 1.22-.573 3.667-2.178 3.686-.64 1.21 94.339 34.437 140.216 45.032 152.298 1.902 2.169 4.638 3.41 7.523 3.41l7.733 1.771h282.649c2.913.001 5.674-1.265 7.577-3.471z" fill="#e89262"/><path d="m324.371 373.261h-151.744l2.67 45.798c0 2.646-2.01 7.761-2.01 7.761 3.682 21.399 22.33 37.68 44.78 37.68h60.863c22.45 0 41.098-16.281 44.78-37.68 0 0-1.701-5.115-1.701-7.761z" fill="#ffd15b"/><path d="m324.369 373.26v45.8c0 2.65-.23 5.24-.66 7.76-7.58 2.98-15.83 4.62-24.46 4.62-17.89 0-34.7-6.97-47.35-19.62l-1.279-1.275c-1.172-1.169-3.069-1.167-4.24.003l-1.282 1.282c-12.65 12.64-29.46 19.61-47.35 19.61-8.63 0-16.882-1.64-24.462-4.62-.43-2.52-.658-5.11-.658-7.76v-45.8z" fill="#f7c359"/><g fill="#e57a45"><path d="m111.499 497h-8.71c-2.88 0-5.62-1.24-7.52-3.41-10.59-12.08-43.69-57.28-44.9-151.62-.02-1.86-2.35-2.7-3.53-1.27 3.94-6.91 8.93-11.3 14.46-17.26.61-.65 1.71-.24 1.73.66.09 4.92.31 15.23.32 16.19 1 113.63 48.15 156.71 48.15 156.71z"/><path d="m36.769 260.78c-14.79 29.76-17.281 71.349-4.981 102.729-1.69 3.35-3.189 6.751-4.499 10.201-.61 1.59-2.8 1.78-3.62.29-17.6-32.05-16.4-80.01.1-113.22 3.26-6.95 12.75-41.32 8.47-56.82-.34-1.22-1.72-1.83-2.85-1.24l8.74-6.81c1.59-1.24 3.93-.58 4.65 1.3.89 2.35 1.86 4.94 1.91 5.06 5.57 14.51-4.54 51.29-7.92 58.51z"/><path d="m70.609 59.29c-14.34 13.2-40.08 44.86-50.77 78.25-6.51 19.88-7.92 49.77-4.59 72.47l-8.88 4.58c-1.15.59-2.57-.05-2.86-1.31-5.7-24.93-4.2-52.75 3.33-75.74 11.65-36.39 41.18-70.73 54.34-81.36 1.35-1.09.79-3.25-.93-3.53 3.05.5 6.2 1.04 8.83 1.49 2.45.42 3.36 3.46 1.53 5.15z"/><path d="m36.589 47.75c26.4-29.32 64.66-47.75 107.22-47.75 2.18 0 4.34.05 6.49.14-41.52 1.85-78.47 21.24-103.62 50.95-2.91-.17-5.82-.21-8.45-.02-1.79.14-2.84-1.99-1.64-3.32z"/></g><path d="m286.834 379.984h-76.671v7.764c0 21.172 17.163 38.335 38.335 38.335 21.172 0 38.335-17.163 38.335-38.335v-7.764z" fill="#fcb5ba"/><path d="m417.965 190.339c-7.393-43.067-37.335-78.85-78.422-93.723-24.311-8.779-51.491-3.228-70.413 14.38l-.072.067c-11.575 10.816-29.55 10.815-41.124-.002-11.079-10.355-25.01-16.559-39.544-18.15 0 0-20.511 1.152-30.592 4.802-41.087 14.873-67.628 49.444-75.021 92.511-4.691 27.325 3.372 54.922 16.851 79.149l50.043 92.936 202.554 1.446 52.162-93.756c13.478-24.228 18.269-52.335 13.578-79.66z" fill="#ffd15b"/><g><path d="m248.497 242.463c-4.106 0-7.456-3.308-7.498-7.423l-.48-47.06c-.042-4.142 3.281-7.534 7.424-7.576h.078c4.106 0 7.456 3.308 7.498 7.423l.48 47.06c.042 4.142-3.281 7.534-7.424 7.576-.025 0-.052 0-.078 0z" fill="#f7c359"/></g><path d="m144.779 363.75-52.17-93.75c-10.11-18.17-15.33-38.53-15.33-59.1 0-6.85.58-13.73 1.75-20.56 3.7-21.54 13.03-41.25 26.58-57.44 13.55-16.18 31.31-28.84 51.85-36.28 7.64-2.77 15.57-4.12 23.43-4.12 2.51 0 5.02.14 7.5.41-5.37.59-10.72 1.82-15.93 3.71-20.54 7.44-38.3 20.1-51.85 36.28-13.55 16.19-22.88 35.9-26.58 57.44-1.17 6.83-1.75 13.71-1.75 20.56 0 20.57 5.22 40.93 15.33 59.1l52.17 93.75v.72z" fill="#f7c359"/><path d="m286.839 379.98v7.77c0 10.59-4.29 20.17-11.23 27.1-2.99 2.99-6.48 5.49-10.32 7.36-4.83-2.84-9.33-6.33-13.39-10.39l-1.28-1.27c-1.17-1.17-3.07-1.17-4.24 0l-1.28 1.28c-4.06 4.06-8.56 7.54-13.39 10.39-12.76-6.23-21.55-19.32-21.55-34.47v-7.77z" fill="#fc9aa1"/><path d="m209.05 218.539c-18.541 9.31-34.191 23.657-45.112 41.298-12.38 19.998-19.163 43.272-19.163 67.356v37.278c0 29.255 23.716 52.97 52.97 52.97 14.049 0 27.522-5.581 37.456-15.515l5.934-5.934 3.827-7.385c1.953-1.953 5.118-1.953 7.071 0l3.96 7.518 5.801 5.801c9.934 9.934 23.407 15.515 37.456 15.515 29.255 0 52.97-23.716 52.97-52.97v-37.278c0-24.117-6.802-47.424-19.216-67.44-10.887-17.556-26.436-31.868-44.879-41.174-10.783-5.441-21.579-8.659-32.388-9.645-2.76-.252-6.032 4.655-8.794 4.695-2.242.032-3.974-4.853-6.218-4.629-10.543 1.053-21.103 4.23-31.675 9.539z" fill="#ffe177"/><g><g><path d="m297.019 364.435c-4.142 0-7.505-3.358-7.505-7.5s3.354-7.5 7.495-7.5h.01c4.143 0 7.5 3.358 7.5 7.5s-3.358 7.5-7.5 7.5z" fill="#ffd15b"/></g><g><path d="m297.019 393.247c-4.142 0-7.505-3.358-7.505-7.5s3.354-7.5 7.495-7.5h.01c4.143 0 7.5 3.358 7.5 7.5s-3.358 7.5-7.5 7.5z" fill="#ffd15b"/></g><g><path d="m321.029 378.841c-4.142 0-7.505-3.358-7.505-7.5s3.354-7.5 7.495-7.5h.01c4.143 0 7.5 3.358 7.5 7.5s-3.357 7.5-7.5 7.5z" fill="#ffd15b"/></g><g><path d="m200.019 364.435c-4.142 0-7.505-3.358-7.505-7.5s3.354-7.5 7.495-7.5h.01c4.143 0 7.5 3.358 7.5 7.5s-3.358 7.5-7.5 7.5z" fill="#ffd15b"/></g><g><path d="m200.019 393.247c-4.142 0-7.505-3.358-7.505-7.5s3.354-7.5 7.495-7.5h.01c4.143 0 7.5 3.358 7.5 7.5s-3.358 7.5-7.5 7.5z" fill="#ffd15b"/></g><g><path d="m176.008 378.841c-4.142 0-7.505-3.358-7.505-7.5s3.354-7.5 7.495-7.5h.01c4.143 0 7.5 3.358 7.5 7.5s-3.358 7.5-7.5 7.5z" fill="#ffd15b"/></g></g><g><path d="m255.999 234.89c.04 4.14-3.28 7.53-7.42 7.57h-.08c-4.11 0-7.46-3.3-7.5-7.42l-.27-26.03c5-.51 10.01-.53 15.01-.07z" fill="#ffd15b"/></g><path d="m269.542 341.3-17.918 13.796c-1.826 1.461-4.421 1.461-6.247 0l-18.523-13.349c-.867-.694-1.479-1.656-1.738-2.736l-1.915-7c-.234-.973-1.78-2.412-1.78-2.412-2.514-6.652-7.913-11.884-14.766-14.143l-8.911-2.937c-6.384-2.104-9.211-9.552-5.831-15.362l2.774-4.77c2.695-4.633 7.649-7.483 13.009-7.483h81.609c5.359 0 10.314 2.85 13.009 7.483l2.774 4.77c3.379 5.81.552 13.258-5.831 15.362l-8.911 2.937c-6.829 2.251-12.241 7.526-14.767 14.144 0 0-1.904 1.486-2.144 2.485l-2.156 6.479c-.259 1.08-.87 2.042-1.737 2.736z" fill="#8b818e"/><path d="m275.579 329.6c-.35.93-.65 1.88-.88 2.85l-1.79 7.45c-.26 1.08-.87 2.04-1.74 2.74l-19.55 15.64c-1.82 1.46-4.42 1.46-6.24 0l-19.55-15.64c-.87-.7-1.48-1.66-1.74-2.74l-1.79-7.45c-.23-.97-.528-1.921-.878-2.851l22.898 13.681c2.44 1.46 5.92 1.46 8.36 0z" fill="#756e78"/><path d="m255.999 313.72v41.06l-4.38 3.5c-1.82 1.46-4.42 1.46-6.24 0l-4.38-3.5v-41.06c0-4.15 3.36-7.5 7.5-7.5s7.5 3.35 7.5 7.5z" fill="#756e78"/><g><path d="m255.999 354.78-.004 41.344-3.956-3.964c-1.96-1.95-5.12-1.95-7.08 0l-3.943 3.951-.017-41.331 4.38-3.365c1.82 1.46 4.42 1.46 6.24 0z" fill="#ffd15b"/></g><path d="m255.999 341.3v13.48l-4.38 3.5c-1.82 1.46-4.42 1.46-6.24 0l-4.38-3.5v-13.48l3.32 1.98c2.44 1.46 5.92 1.46 8.36 0z" fill="#665e66"/><g><g><path d="m156.499 226.5c-4.143 0-7.5-3.358-7.5-7.5v-25c0-4.142 3.357-7.5 7.5-7.5s7.5 3.358 7.5 7.5v25c0 4.142-3.357 7.5-7.5 7.5z" fill="#756e78"/></g><g><path d="m340.499 226.5c-4.143 0-7.5-3.358-7.5-7.5v-25c0-4.142 3.357-7.5 7.5-7.5s7.5 3.358 7.5 7.5v25c0 4.142-3.357 7.5-7.5 7.5z" fill="#756e78"/></g></g></g></svg>