<svg id="Layer_1" enable-background="new 0 0 508.689 508.689" height="512" viewBox="0 0 508.689 508.689" width="512" xmlns="http://www.w3.org/2000/svg"><g><g><path d="m254.345 23.198c-93.415 0-150.959 52.692-151.118 52.781 0 0-2.392 2.986-2.84 4.971-3.635 16.134-7.03 37.757-7.03 53.536 0 134.065 113.056 242.719 247.121 242.719 51.625 0 109.062-24.743 147.503-54.492.86-.665 3.588-5.137 3.588-5.137.169-1.034 5.522-22.348 5.522-51.632-.001-134.065-108.682-242.746-242.746-242.746z" fill="#bd80e1"/><path d="m340.456 370.352c-134.065 0-242.746-108.681-242.746-242.746 0-17.72 1.911-34.986 5.516-51.628-55.826 44.476-91.627 113.041-91.627 189.966 0 86.402 45.141 162.26 113.125 205.278l268.308-6.052c49.205-34.29 85.284-86.427 98.536-147.594-41.465 33.028-93.979 52.776-151.112 52.776z" fill="#af66da"/></g><g><g><g><path d="m173.164 172.113 41.027-2.989-42.237-73.157-123.248 71.157c23.327 40.404 84.055 28.316 124.458 4.989z" fill="#cdbfba"/></g><g><path d="m188.731 140.726-50.091 28.92c-28.797 16.626-63.307 14.356-89.208-2.941l-.726.419c23.327 40.404 74.991 54.247 115.395 30.92l50.091-28.92z" fill="#f9968c"/></g><g><path d="m330.763 168.124-36.265-1.938 42.237-73.157 123.248 71.157c-23.326 40.404-88.816 27.265-129.22 3.938z" fill="#e1d3ce"/></g><g><path d="m459.257 163.767c-25.901 17.297-60.411 19.567-89.208 2.941l-50.091-28.92-25.461 28.398 50.091 28.92c40.404 23.327 92.068 9.484 115.395-30.92z" fill="#fab9af"/></g><path d="m393.033 465.17-17.75-58.862h-237.059l-13.5 64.915c37.503 23.73 81.958 37.467 129.62 37.467 51.334-.001 99.231-16.023 138.689-43.52z" fill="#efe2dd"/><g><path d="m237.406 81.126h-18.49c-44.565 0-80.691 36.127-80.691 80.692v231.925h99.181z" fill="#e1d3ce"/></g><g><path d="m294.591 81.126h-33.525v312.617h114.216v-231.926c0-44.564-36.126-80.691-80.691-80.691z" fill="#efe2dd"/></g><g><path d="m311.852 487.316h-110.197c-22.649 0-41.009-18.36-41.009-41.009v-40h192.215v40c0 22.649-18.361 41.009-41.009 41.009z" fill="#e1d3ce"/></g><g><path d="m374.742 427.161c.352-2.407.541-4.867.541-7.372v-26.799h.406c19.175 0 34.719-15.544 34.719-34.719 0-19.175-15.544-34.719-34.719-34.719-23.94 0-43.928-18.257-46.091-42.099l-13.178-145.264c-2.779-30.632-28.46-54.09-59.219-54.09-.164 0-.328.001-.492.002-23.168.189-41.738 19.291-41.738 42.46v302.6z" fill="#fff"/></g><g><path d="m325.328 470.362c25.356-.301 46.544-19.36 49.584-44.421h-131.387c-.096 0-.193 0-.289-.001-14.393-.081-25.457-12.81-23.902-27.119l33.399-307.337c.305-3.191.858-6.303 1.639-9.318-.001 0-.001 0-.002 0-29.843 1.405-53.578 24.579-56.361 53.743l-13.9 145.563c-2.036 21.327-18.264 38.146-38.803 41.478-3.849.628-6.611.566-7.488.602-19.175 0-34.719 15.544-34.719 34.719 0 19.175 15.544 34.719 34.719 34.719h.406v26.799c0 27.922 22.604 50.576 50.576 50.576h135.905c.19 0 .379-.001.569-.003z" fill="#f9f3f1"/></g><g><circle cx="256.753" cy="156.586" fill="#f9f3f1" r="47.889"/></g><g><circle cx="256.753" cy="143.856" fill="#fedf30" r="47.889"/></g><g><path d="m292.832 132.045c0 19.926-16.153 36.079-36.079 36.079s-36.079-16.153-36.079-36.079 16.154-132.045 36.079-132.045c19.926 0 36.079 112.12 36.079 132.045z" fill="#ffc344"/></g><g><path d="m343.667 242.353c-5.482 0-9.925-4.444-9.925-9.925v-22.332c0-5.482 4.444-9.925 9.925-9.925 5.482 0 9.925 4.444 9.925 9.925v22.332c0 5.481-4.444 9.925-9.925 9.925z" fill="#00366d"/></g><g><path d="m343.667 243.332c-5.482 0-9.925-4.444-9.925-9.925v-22.332c0-5.482 4.444-9.925 9.925-9.925 5.482 0 9.925 4.444 9.925 9.925v22.332c0 5.481-4.444 9.925-9.925 9.925z" fill="#00366d"/></g><g><path d="m343.667 242.353c-5.482 0-9.925-4.444-9.925-9.925v-22.332c0-5.482 4.444-9.925 9.925-9.925 5.482 0 9.925 4.444 9.925 9.925v22.332c0 5.481-4.444 9.925-9.925 9.925z" fill="#00366d"/></g><g><path d="m343.667 252.145c-5.482 0-9.925-4.444-9.925-9.925v-22.332c0-5.482 4.444-9.925 9.925-9.925 5.482 0 9.925 4.444 9.925 9.925v22.332c0 5.482-4.444 9.925-9.925 9.925z" fill="#e1d3ce"/></g><g><path d="m343.667 243.332c-5.482 0-9.925-4.444-9.925-9.925v-22.332c0-5.482 4.444-9.925 9.925-9.925 5.482 0 9.925 4.444 9.925 9.925v22.332c0 5.481-4.444 9.925-9.925 9.925z" fill="#00366d"/></g><g><path d="m343.667 393.423c-3.245 0-5.875-2.631-5.875-5.875 0-18.29 14.88-33.17 33.17-33.17 3.245 0 5.875 2.631 5.875 5.875s-2.631 5.875-5.875 5.875c-11.811 0-21.419 9.609-21.419 21.419-.001 3.245-2.632 5.876-5.876 5.876z" fill="#00366d"/></g><g><path d="m165.022 242.353c5.482 0 9.925-4.444 9.925-9.925v-22.332c0-5.482-4.444-9.925-9.925-9.925-5.482 0-9.925 4.444-9.925 9.925v22.332c0 5.481 4.444 9.925 9.925 9.925z" fill="#00366d"/></g><g><path d="m165.022 243.332c5.482 0 9.925-4.444 9.925-9.925v-22.332c0-5.482-4.444-9.925-9.925-9.925-5.482 0-9.925 4.444-9.925 9.925v22.332c0 5.481 4.444 9.925 9.925 9.925z" fill="#00366d"/></g><g><path d="m165.022 242.353c5.482 0 9.925-4.444 9.925-9.925v-22.332c0-5.482-4.444-9.925-9.925-9.925-5.482 0-9.925 4.444-9.925 9.925v22.332c0 5.481 4.444 9.925 9.925 9.925z" fill="#00366d"/></g><g><path d="m165.022 252.145c5.482 0 9.925-4.444 9.925-9.925v-22.332c0-5.482-4.444-9.925-9.925-9.925-5.482 0-9.925 4.444-9.925 9.925v22.332c0 5.482 4.444 9.925 9.925 9.925z" fill="#e1d3ce"/></g><g><path d="m165.022 243.332c5.482 0 9.925-4.444 9.925-9.925v-22.332c0-5.482-4.444-9.925-9.925-9.925-5.482 0-9.925 4.444-9.925 9.925v22.332c0 5.481 4.444 9.925 9.925 9.925z" fill="#00366d"/></g><g><path d="m165.023 393.423c-3.245 0-5.875-2.631-5.875-5.875 0-11.811-9.609-21.419-21.419-21.419-3.245 0-5.875-2.631-5.875-5.875s2.631-5.875 5.875-5.875c18.29 0 33.17 14.88 33.17 33.17-.001 3.243-2.632 5.874-5.876 5.874z" fill="#00366d"/></g></g><g><path d="m269.631 151.695c-.106 0-.213 0-.319-.001-18.75-.155-29.454-22.062-17.895-36.826.786-1.004 1.616-1.971 2.489-2.898 3.372-3.586 3.635-9.03.639-12.937-4.872-6.354-7.767-14.303-7.767-22.929 0-9.752 3.701-18.639 9.775-25.333 5.116-5.639 5.895-14.008 1.644-20.325-3.395-5.046-5.377-11.122-5.377-17.66 0-4.486.933-8.755 2.615-12.622-18.973 4.673-34.212 108.615-34.746 130.764 0 .01 0 .02-.001.03-.001.052-.002.103-.003.153l-.001.035c-.002.119-.004.236-.006.35v.028c-.256 20.29 16.059 36.6 36.075 36.6 15.118 0 28.065-9.299 33.432-22.489-5.919 3.834-12.976 6.06-20.554 6.06z" fill="#fea95c"/></g><g><path d="m169.985 229.456c-2.741 0-4.963-2.222-4.963-4.963v-9.861c0-2.741 2.222-4.963 4.963-4.963 2.741 0 4.963 2.222 4.963 4.963v9.861c0 2.741-2.222 4.963-4.963 4.963z" fill="#fff"/></g><g><path d="m338.704 229.456c-2.741 0-4.963-2.222-4.963-4.963v-9.861c0-2.741 2.222-4.963 4.963-4.963 2.741 0 4.963 2.222 4.963 4.963v9.861c0 2.741-2.222 4.963-4.963 4.963z" fill="#fff"/></g><g><path d="m367.576 165.186h-29.091c-6.444 0-11.667 5.224-11.667 11.667 0 6.444 5.224 11.667 11.667 11.667h29.091c6.444 0 11.667-5.224 11.667-11.667.001-6.443-5.223-11.667-11.667-11.667z" fill="#fff"/></g><g><path d="m175.464 165.186h-29.091c-6.444 0-11.667 5.224-11.667 11.667 0 6.444 5.224 11.667 11.667 11.667h29.091c6.444 0 11.667-5.224 11.667-11.667 0-6.443-5.224-11.667-11.667-11.667z" fill="#fff"/></g></g></g></svg>