<svg id="Capa_1" enable-background="new 0 0 497 497" height="512" viewBox="0 0 497 497" width="512" xmlns="http://www.w3.org/2000/svg"><g><path d="m76.777 119.5 21.909-89.873 20.982 28.786.014.016 33.727 46.453-23.162 33.433.003.005-8.28 11.95-24.685-16.808z" fill="#f0e9e6"/><path d="m12.568 12.988c.496-1.987 2.421-3.265 4.449-2.975 14.391 2.057 25.835 1.694 35.516 1.386 0 0 10.982.249 15.765.633 11.07.889 17.232 4.645 27.415 17.968 16.947 22.173-1.851 54.436 7.149 88.436 2.57 9.708 16.596 27.926 16.596 27.926l-18.409-2.927c-21.436-6.7-54.738-18.256-67.533-28.908-35.939-29.919-24.611-86.871-20.948-101.539z" fill="#e5dcd8"/><path d="m52.06 11.42c11.16.85 20.27 4.64 30.51 18.05 16.95 22.18-2.53 54.53 6.47 88.53 1.73 6.55 8.068 18.395 12.008 25.435 11.27 3.53 19.262 5.705 19.262 5.705-.02-.1-12.7-21.43-15.27-31.14-9-34 10.48-66.35-6.47-88.53-14.7-19.23-27.05-18.67-46.51-18.05z" fill="#dbd2cc"/><path d="m420.223 119.5-21.909-89.873-20.982 28.786-.014.016-33.727 46.453 23.162 33.433-.003.005 8.28 11.95 24.685-16.808z" fill="#f0e9e6"/><path d="m484.431 12.988c-.496-1.987-2.421-3.265-4.449-2.975-14.391 2.057-25.835 1.694-35.516 1.386 0 0-10.982.249-15.765.633-11.07.889-17.232 4.645-27.415 17.968-16.947 22.173 1.851 54.436-7.149 88.436-2.57 9.708-16.596 27.926-16.596 27.926l18.409-2.927c21.436-6.7 54.738-18.256 67.533-28.908 35.94-29.919 24.612-86.871 20.948-101.539z" fill="#e5dcd8"/><path d="m444.94 11.42c-11.16.85-20.27 4.64-30.51 18.05-16.95 22.18 2.53 54.53-6.47 88.53-1.73 6.55-8.068 18.395-12.008 25.435-11.27 3.53-19.262 5.705-19.262 5.705.02-.1 12.7-21.43 15.27-31.14 9-34-10.48-66.35 6.47-88.53 14.7-19.23 27.05-18.67 46.51-18.05z" fill="#dbd2cc"/><path d="m329.5 100h-157.485l9.91-23.124c8.591-20.045 20.838-34.649 40.622-41.802 3.248-1.174 9.662-3.343 9.662-3.343 5.286-1.138 10.741-1.731 16.291-1.731 30.94 0 58.902 18.438 71.09 46.876l.323.753-1.157 9.148z" fill="#e5dcd8"/><path d="m319.912 77.629c-22.98-7.66-47.202-11.629-71.412-11.629-15.83 0-31.663 1.703-47.152 5.018-2.473.529-4.462-2.043-3.31-4.294 7.906-15.439 19.924-27.566 34.172-34.994-24.17 5.21-44.8 21.81-54.8 45.15-.004.003.006-.002-.32.74.055-.11-9.481 22.12-9.59 22.38h17 145z" fill="#dbd2cc"/><path d="m387 411 6.997-122.25 10.147-62.237c1.791-10.983-1.862-22.152-9.797-29.954-11.097-10.913-17.347-25.825-17.347-41.389 0-21.88-12.303-41.9-31.822-51.785l-1.125-.57c-29.619-14.999-62.353-22.815-95.553-22.815-33.2 0-65.934 7.816-95.552 22.815l-1.125.57s-7.573 5.37-11.301 8.711c-12.114 10.856-18.225 26.929-18.225 43.66 0 15.564-3.561 30.878-14.659 41.79-7.935 7.802-11.587 18.971-9.797 29.954l8.48 60.5 7 123z" fill="#e5dcd8"/><g fill="#dbd2cc"><path d="m152.182 103.201c-10.454 10.003-16.182 24.47-16.182 39.379v12.59c0 15.56-6.25 30.48-17.35 41.39-6.6 6.49-10.24 15.31-10.24 24.42 0 1.84.15 3.69.45 5.53l10.14 61.49 7 123-15.846 2.712-7.154-125.712-10.14-61.49c-.3-1.84-.45-3.69-.45-5.53 0-9.11 3.64-17.93 10.24-24.42 5.55-5.46 9.89-11.91 12.84-18.95s4.51-14.66 4.51-22.44c0-21.88 12.3-41.9 31.82-51.79z"/><path d="m171.457 387.691-1.457 2.309-30.5 1.713v-28.793c0-1.59.13-3.18.38-4.75l.385-.336c16.57 0 31.192 13.287 31.192 29.857z"/><path d="m357.5 363.38v27.503l-30.5-.883-1.415-1.989c0-16.032 12.083-30.834 28-31.66.385-.02 3.068 1.835 3.455 1.829.31 1.71.46 3.45.46 5.2z"/></g><path d="m202.777 279.191c1.4 1.542 3.959 5.383 3.959 5.383 25.151 22.775 64.567 21.321 87.897-4.363 5.285-5.818 7.617-13.735 6.329-21.489l-41.406-249.35c-.587-3.535-2.79-6.454-5.777-8.051 0 0-3.382.084-5.28.084-5.481 0-8.868 3.497-9.766 8.904l-39.233 245.659c-1.288 7.754-2.008 17.405 3.277 23.223z" fill="#faf8f8"/><path d="m253.78 1.321-47.044 283.254c-1.51-1.36-2.966-2.825-4.366-4.365-5.29-5.82-7.62-13.73-6.33-21.49l41.4-249.35c.45-2.71 1.84-5.05 3.81-6.71 1.97-1.67 4.51-2.66 7.25-2.66 1.9 0 3.7.471 5.28 1.321z" fill="#f0e9e6"/><path d="m143 462h-16.86l-5.831-1.223c-11.046 0-18.128-7.731-18.128-18.777 0-17.257 6.99-32.108 19.628-42 1.26-.986 3.377-3.332 3.377-3.332 8.448-5.482 18.516-8.668 29.315-8.668h1.5l93.33 8.21 91.669-8.21h1.5c29.776 0 54 24.224 54 54 0 11.046-8.954 20-20 20h-21.5z" fill="#f0e9e6"/><path d="m126.14 462h-5.64c-11.05 0-20-8.95-20-20 0-18.977 9.843-35.706 24.684-45.334-6.789 11.577-10.684 26.474-10.684 42.044 0 10.33 4.76 19.24 11.64 23.29z" fill="#e5dcd8"/><path d="m341 388v10c0 24.26-19.74 44-44 44h-97c-24.26 0-44-19.74-44-44v-10z" fill="#e5dcd8"/><path d="m357.04 358.18c-16.37.24-30.04 13.57-30.04 29.99v9.83c0 16.57-13.43 30-30 30h-97c-16.57 0-30-13.43-30-30v-9.83c0-16.57-13.43-30-30-30h-.12c.23-1.43.56-2.84.99-4.22 4.84-15.44 19.15-25.95 35.33-25.95h144.44c15.78 0 29.82 10 34.98 24.91l.23.66c.52 1.5.92 3.05 1.19 4.61z" fill="#f0e9e6"/><path d="m142 442.649c0-7.72 6.28-14 14-14l.5-.649h186c7.72 0 14 6.28 14 14v2c0 29.271-23.729 53-53 53h-98.298l-11.617-1.394c-29.271 0-51.585-23.686-51.585-52.957z" fill="#e5dcd8"/><path d="m209.5 497h-16c-29.27 0-53-23.73-53-53v-2c0-7.72 6.28-14 14-14h2v16c0 29.27 23.73 53 53 53z" fill="#dbd2cc"/><path d="m329.16 428c-8.04 8.61-19.48 14-32.16 14h-97c-12.68 0-24.12-5.39-32.16-14z" fill="#dbd2cc"/><g><g><path d="m148.5 275.5c-4.142 0-7.5-3.358-7.5-7.5v-25c0-4.142 3.358-7.5 7.5-7.5s7.5 3.358 7.5 7.5v25c0 4.142-3.358 7.5-7.5 7.5z" fill="#756e78"/></g><g><path d="m348.5 275.5c-4.142 0-7.5-3.358-7.5-7.5v-25c0-4.142 3.358-7.5 7.5-7.5s7.5 3.358 7.5 7.5v25c0 4.142-3.358 7.5-7.5 7.5z" fill="#756e78"/></g></g></g></svg>